# xmcd
#
# Track frame offsets:
#	150
#	9542
#	23671
#	38409
#	47713
#	64664
#	75909
#	95366
#	108496
#	122249
#
# Disc length: 1780 seconds
#
# Revision: 0
# Processed by: cddbd v1.4PL0 Copyright (c) Steve Scherf et al.
# Submitted via: dBpowerAMP V4.0
#
DISCID=6c06f20a
DTITLE=Mike bella - Mike Bella
DYEAR=1900
DGENRE=Country
TTITLE0=I have caught your act
TTITLE1=Tell me what to do
TTITLE2=Here comes the hurt again
TTITLE3=Don t wipe the tears
TTITLE4=We don t have to make love
TTITLE5=Mr. lonely, Mrs. you
TTITLE6=God made love
TTITLE7=Under  your spell
TTITLE8=Let s pretend
TTITLE9=Sounds like love
EXTD=Mike Bella - Mike Bella
EXTT0=
EXTT1=
EXTT2=
EXTT3=
EXTT4=
EXTT5=
EXTT6=
EXTT7=
EXTT8=
EXTT9=
PLAYORDER=
